<svg xmlns="http://www.w3.org/2000/svg" version="1.1" xmlns:xlink="http://www.w3.org/1999/xlink" xmlns:svgjs="http://svgjs.com/svgjs" height="62" width="331.63932571942337"><g id="SvgjsG1144" rel="mainfill" name="main_text" xmlns:name="mainText_mainfill" transform="translate(68.78333578640948,-5.71400260925293)" fill="#221e40"><path fill="#221e40" d="M9.976 43.5 l-0.348 6.496 l1.914 0.812 l1.798 -0.348 l1.218 -2.668 l-0.29 -4.002 l-0.986 -2.842 l-1.682 -0.058 l-1.972 0 z M9.628 22.214 l0.58 12.702 l2.436 -0.348 l2.204 -1.798 l0.812 -3.886 l0.232 -4.582 l-2.726 -1.972 l-1.624 -0.232 z M14.326 58 l-12.006 0.116 l-0.928 -10.962 l0.29 -15.022 l0 -16.646 l10.962 -0.116 l4.466 0.928 l3.712 1.102 l0.696 1.276 l2.378 10.266 l-0.58 5.104 l-1.334 2.552 l-0.986 0.986 l-2.494 0.754 l2.668 1.16 l1.392 1.16 l1.45 5.568 l-1.16 8.932 l-2.494 2.03 z M27.26 50.576 l0.29 -34.568 l2.262 -0.986 l6.96 0.406 l1.566 0.58 l-0.58 13.63 l-0.696 21.286 l2.32 3.132 l4.408 -0.928 l-0.348 -24.65 l0.348 -13.398 l5.51 0 l0.174 37.642 l-1.566 3.828 l-7.25 2.088 l-10.44 -1.45 z M54.114000000000004 15.253999999999998 l7.424 0.232 l6.264 29.406 l0.522 -3.074 l-1.682 -26.39 l6.438 -0.116 l2.552 0.58 l-1.16 41.76 l-5.162 0.696 l-5.162 -0.29 l-3.422 -25.462 l-1.218 -3.77 l0.174 29.116 l-5.974 0.522 l-0.29 -24.882 z M79.92399999999999 15.253999999999998 l7.424 0.232 l6.264 29.406 l0.522 -3.074 l-1.682 -26.39 l6.438 -0.116 l2.552 0.58 l-1.16 41.76 l-5.162 0.696 l-5.162 -0.29 l-3.422 -25.462 l-1.218 -3.77 l0.174 29.116 l-5.974 0.522 l-0.29 -24.882 z M119.828 14.847999999999999 l9.744 0 l-7.308 24.302 l0 2.958 l-0.464 16.008 l-11.252 0.29 l2.088 -17.632 l-1.856 -2.842 l-7.076 -22.446 l8.932 -0.638 l3.944 21.808 l1.624 -4.466 z  M143.84 15.543999999999997 l11.774 -0.348 l6.148 0.232 l1.74 0.116 l-0.638 8.41 l-4.64 -0.29 l0.348 34.336 l-10.266 0.116 l0.522 -20.416 l0.232 -14.152 l-5.626 -0.522 z M187.746 20.880000000000003 l-0.232 31.436 l-0.638 4.176 l-1.856 1.508 l-5.916 0.638 l-10.846 -1.044 l-1.566 -1.566 l-1.102 -2.378 l0.232 -9.976 c0 -4.35 0.058 -8.294 0.174 -11.774 c-0.058 -5.916 0 -11.832 0.174 -12.122 c0 -0.232 0.348 -1.218 0.986 -2.146 l0.754 -1.856 l9.164 -0.87 l6.554 0.812 l3.248 1.276 z M177.24800000000002 50.17 l2.146 -0.87 l0.696 -21.692 l-1.392 -0.812 l-5.568 -0.116 l-0.522 1.972 l0.116 8.178 l0 12.992 l0.928 0.174 z M203.058 23.838 l-6.09 -0.638 l-0.638 26.68 l5.568 0.116 l0.812 -0.87 l1.392 -13.862 l0 -6.67 z M192.212 15.543999999999997 l1.798 0 l4.64 -0.116 c2.552 -0.058 4.988 -0.116 6.09 0.058 l3.422 0.986 c0.696 0.232 1.392 0.522 2.088 0.812 l3.19 5.104 c0.232 3.654 0.406 7.076 0.464 10.324 c0 5.568 0 11.658 -0.464 14.21 c-0.29 1.798 -0.696 3.306 -0.754 4.408 c-0.174 0.638 -0.232 1.276 -0.232 1.798 l-3.074 4.582 l-6.96 0.406 l-10.498 0 z M239.54 20.880000000000003 l-0.232 31.436 l-0.638 4.176 l-1.856 1.508 l-5.916 0.638 l-10.846 -1.044 l-1.566 -1.566 l-1.102 -2.378 l0.232 -9.976 c0 -4.35 0.058 -8.294 0.174 -11.774 c-0.058 -5.916 0 -11.832 0.174 -12.122 c0 -0.232 0.348 -1.218 0.986 -2.146 l0.754 -1.856 l9.164 -0.87 l6.554 0.812 l3.248 1.276 z M229.042 50.17 l2.146 -0.87 l0.696 -21.692 l-1.392 -0.812 l-5.568 -0.116 l-0.522 1.972 l0.116 8.178 l0 12.992 l0.928 0.174 z M261.174 16.008000000000003 l1.508 2.494 l0 7.076 l-0.174 3.596 l-7.772 -0.406 l0 -2.262 l0 -3.074 l-3.828 0.058 l-0.638 1.624 l0.638 7.888 l5.974 0.348 l5.8 0.696 l0.174 7.366 l0 5.22 l-0.754 9.106 l-5.22 2.552 l-7.656 -0.348 l-3.48 -1.392 l-1.74 -1.334 l-0.812 -4.234 l0.29 -7.192 l0.29 -2.32 l1.972 0.116 l4.524 0.522 l0 1.74 l0 1.914 l0 0.986 l0 1.566 l5.452 0.638 l0.174 -10.44 l-11.542 -0.638 l-0.464 -12.76 l-0.116 -8.352 l1.914 -1.392 c1.334 -0.058 2.494 -0.174 3.596 -0.29 c1.856 -0.174 3.712 -0.29 4.118 -0.29 c0.29 0 1.334 0.058 2.32 0.116 l1.856 0.116 z" style="fill: rgb(34, 30, 64);"></path></g><defs id="SvgjsDefs1143"></defs><g id="SvgjsG1145" fill="#221e40" rel="mainfill" name="symbol" xmlns:name="symbol_mainfill" transform="translate(-11.435523342344023,-8.259833874249844) scale(0.5452755138102967)"><path xmlns="http://www.w3.org/2000/svg" d="M118.847,22.634c-2.452-3.715-6.205-6.252-10.566-7.145c-1.105-0.227-2.234-0.341-3.354-0.341  c-7.875,0-14.736,5.605-16.327,13.394l-3.518,19.35c-8.454-2.047-17.629-2.048-26.083,0l-3.53-19.414  c-1.58-7.724-8.441-13.329-16.314-13.329c-1.121,0-2.249,0.114-3.354,0.341c-9.003,1.842-14.829,10.665-12.987,19.668  c0.03,0.149,0.072,0.296,0.125,0.438l10.281,27.825c-5.997,7.867-9.178,22.768-9.178,31.181c0,21.126,18.393,34.25,48,34.25  s48-13.124,48-34.25c0-8.412-3.181-23.313-9.177-31.181l10.28-27.825c0.053-0.143,0.094-0.289,0.125-0.438  C122.16,30.797,121.3,26.349,118.847,22.634z M115.429,33.744l-10.797,29.225c-0.391,1.059-0.155,2.246,0.61,3.075  c5.034,5.452,8.796,19.574,8.796,28.558c0,20.829-21.696,28.25-42,28.25c-20.304,0-42-7.421-42-28.25  c0-8.983,3.762-23.105,8.797-28.558c0.765-0.829,1.001-2.017,0.61-3.075L28.648,33.744c-1.046-5.688,2.661-11.212,8.353-12.377  c0.711-0.145,1.435-0.219,2.152-0.219c5.036,0,9.425,3.588,10.424,8.467l4.104,22.574c0.154,0.845,0.662,1.583,1.396,2.028  c0.735,0.445,1.626,0.555,2.444,0.301c4.645-1.438,9.529-2.168,14.519-2.168c4.99,0,9.875,0.729,14.52,2.168  c0.821,0.253,1.71,0.145,2.443-0.301c0.734-0.445,1.242-1.184,1.396-2.028l4.092-22.51c1.011-4.943,5.399-8.531,10.437-8.531  c0.717,0,1.441,0.074,2.151,0.219c2.791,0.571,5.193,2.195,6.763,4.572C115.371,28.258,115.932,31.021,115.429,33.744z" fill="#221e40" style="fill: rgb(34, 30, 64);"></path><circle xmlns="http://www.w3.org/2000/svg" cx="45.04" cy="90.977" r="5.625"></circle><circle xmlns="http://www.w3.org/2000/svg" cx="99.039" cy="90.977" r="5.625"></circle><path xmlns="http://www.w3.org/2000/svg" d="M84.761,100.475c-1.657,0-3,1.343-3,3c0,1.861-1.514,3.375-3.375,3.375c-1.531,0-2.813-1.031-3.224-2.432  c1.163-0.412,2.001-1.511,2.001-2.816c0-1.657-1.343-3-3-3h-4.25c-1.657,0-3,1.343-3,3c0,1.306,0.839,2.405,2.003,2.817  c-0.412,1.399-1.693,2.431-3.224,2.431c-1.861,0-3.375-1.514-3.375-3.375c0-1.657-1.343-3-3-3s-3,1.343-3,3  c0,5.169,4.206,9.375,9.375,9.375c2.449,0,4.675-0.952,6.346-2.495c1.672,1.543,3.897,2.495,6.347,2.495  c5.169,0,9.375-4.206,9.375-9.375C87.761,101.817,86.418,100.475,84.761,100.475z" fill="#221e40" style="fill: rgb(34, 30, 64);"></path></g></svg>